{
  "accessors": [
    {
      "bufferView": 2,
      "componentType": 5126,
      "count": 13223,
      "max": [
        9.761821746826172,
        9.762102127075195,
        19.524206161499023
      ],
      "min": [
        -9.761821746826172,
        -9.762104034423828,
        0.0
      ],
      "type": "VEC3"
    },
    {
      "bufferView": 2,
      "byteOffset": 158676,
      "componentType": 5126,
      "count": 13223,
      "max": [
        1.0,
        0.9999926686286926,
        0.9999926686286926
      ],
      "min": [
        -1.0,
        -0.9999926686286926,
        -0.9999926686286926
      ],
      "type": "VEC3"
    },
    {
      "bufferView": 3,
      "componentType": 5126,
      "count": 13223,
      "max": [
        0.9978823065757751,
        0.9979193210601807,
        0.9999926686286926,
        1.0
      ],
      "min": [
        -0.9980049133300781,
        -0.9959121346473694,
        -0.9862488508224487,
        1.0
      ],
      "type": "VEC4"
    },
    {
      "bufferView": 1,
      "componentType": 5126,
      "count": 13223,
      "max": [
        0.8710010051727295,
        0.9980469942092896
      ],
      "min": [
        0.0019529999699443579,
        0.0019529999699443579
      ],
      "type": "VEC2"
    },
    {
      "bufferView": 0,
      "componentType": 5125,
      "count": 75600,
      "type": "SCALAR"
    },
    {
      "bufferView": 2,
      "byteOffset": 317352,
      "componentType": 5126,
      "count": 450,
      "max": [
        5.5818328857421875,
        -7.288250923156738,
        13.793761253356934
      ],
      "min": [
        -5.572617053985596,
        -9.297645568847656,
        10.143389701843262
      ],
      "type": "VEC3"
    },
    {
      "bufferView": 2,
      "byteOffset": 322752,
      "componentType": 5126,
      "count": 450,
      "max": [
        0.9998022317886353,
        0.32521212100982666,
        0.9936290979385376
      ],
      "min": [
        -0.9998022317886353,
        -0.9962684512138367,
        -0.9267140030860901
      ],
      "type": "VEC3"
    },
    {
      "bufferView": 3,
      "byteOffset": 211568,
      "componentType": 5126,
      "count": 450,
      "max": [
        0.998539388179779,
        0.9995636940002441,
        0.658061683177948,
        1.0
      ],
      "min": [
        -0.26414021849632263,
        -0.9995638728141785,
        -0.6580595970153809,
        1.0
      ],
      "type": "VEC4"
    },
    {
      "bufferView": 1,
      "byteOffset": 105784,
      "componentType": 5126,
      "count": 450,
      "max": [
        0.11388099938631058,
        0.05138599872589111
      ],
      "min": [
        0.0019529999699443579,
        0.0019529999699443579
      ],
      "type": "VEC2"
    },
    {
      "bufferView": 0,
      "byteOffset": 302400,
      "componentType": 5125,
      "count": 2544,
      "type": "SCALAR"
    }
  ],
  "asset": {
    "extras": {
      "author": "HQ3DMOD (https://sketchfab.com/AivisAstics)",
      "license": "CC-BY-4.0 (http://creativecommons.org/licenses/by/4.0/)",
      "source": "https://sketchfab.com/3d-models/emoji-062-without-mouth-bf0e6418ea2e4d3bb7ab5b752109512f",
      "title": "Emoji 062 Without mouth"
    },
    "generator": "Sketchfab-12.66.0",
    "version": "2.0"
  },
  "bufferViews": [
    {
      "buffer": 0,
      "byteLength": 312576,
      "name": "floatBufferViews",
      "target": 34963
    },
    {
      "buffer": 0,
      "byteLength": 109384,
      "byteOffset": 312576,
      "byteStride": 8,
      "name": "floatBufferViews",
      "target": 34962
    },
    {
      "buffer": 0,
      "byteLength": 328152,
      "byteOffset": 421960,
      "byteStride": 12,
      "name": "floatBufferViews",
      "target": 34962
    },
    {
      "buffer": 0,
      "byteLength": 218768,
      "byteOffset": 750112,
      "byteStride": 16,
      "name": "floatBufferViews",
      "target": 34962
    }
  ],
  "buffers": [
    {
      "byteLength": 968880,
      "uri": "scene.bin"
    }
  ],
  "extensionsRequired": [
    "KHR_materials_pbrSpecularGlossiness"
  ],
  "extensionsUsed": [
    "KHR_materials_pbrSpecularGlossiness"
  ],
  "images": [
    {
      "uri": "textures/emoji_062_Mat_diffuse.png"
    },
    {
      "uri": "textures/emoji_062_Mat_specularGlossiness.png"
    },
    {
      "uri": "textures/emoji_062_Mat_normal.png"
    }
  ],
  "materials": [
    {
      "doubleSided": true,
      "emissiveTexture": {
        "index": 0
      },
      "extensions": {
        "KHR_materials_pbrSpecularGlossiness": {
          "diffuseFactor": [
            1.0,
            1.0,
            1.0,
            1.0
          ],
          "diffuseTexture": {
            "index": 0
          },
          "glossinessFactor": 1.0,
          "specularFactor": [
            0.5002842480953857,
            0.5002842480953857,
            0.5002842480953857
          ],
          "specularGlossinessTexture": {
            "index": 1
          }
        }
      },
      "name": "emoji_062_Mat",
      "normalTexture": {
        "index": 2
      }
    }
  ],
  "meshes": [
    {
      "name": "Object_0",
      "primitives": [
        {
          "attributes": {
            "NORMAL": 1,
            "POSITION": 0,
            "TANGENT": 2,
            "TEXCOORD_0": 3
          },
          "indices": 4,
          "material": 0,
          "mode": 4
        }
      ]
    },
    {
      "name": "Object_1",
      "primitives": [
        {
          "attributes": {
            "NORMAL": 6,
            "POSITION": 5,
            "TANGENT": 7,
            "TEXCOORD_0": 8
          },
          "indices": 9,
          "material": 0,
          "mode": 4
        }
      ]
    }
  ],
  "nodes": [
    {
      "children": [
        1
      ],
      "matrix": [
        1.0,
        0.0,
        0.0,
        0.0,
        0.0,
        2.220446049250313e-16,
        -1.0,
        0.0,
        0.0,
        1.0,
        2.220446049250313e-16,
        0.0,
        0.0,
        0.0,
        0.0,
        1.0
      ],
      "name": "Sketchfab_model"
    },
    {
      "children": [
        2,
        3
      ],
      "name": "emoji_062.obj.cleaner.materialmerger.gles"
    },
    {
      "mesh": 0,
      "name": "Object_2"
    },
    {
      "mesh": 1,
      "name": "Object_3"
    }
  ],
  "samplers": [
    {
      "magFilter": 9729,
      "minFilter": 9987,
      "wrapS": 10497,
      "wrapT": 10497
    }
  ],
  "scene": 0,
  "scenes": [
    {
      "name": "Sketchfab_Scene",
      "nodes": [
        0
      ]
    }
  ],
  "textures": [
    {
      "sampler": 0,
      "source": 0
    },
    {
      "sampler": 0,
      "source": 1
    },
    {
      "sampler": 0,
      "source": 2
    }
  ]
}
