{
  "accessors": [
    {
      "bufferView": 2,
      "componentType": 5126,
      "count": 4280,
      "max": [
        0.9998994469642639,
        0.9999916553497314,
        1.0000724792480469
      ],
      "min": [
        -0.9996973872184753,
        -0.999993622303009,
        -0.9999834895133972
      ],
      "type": "VEC3"
    },
    {
      "bufferView": 2,
      "byteOffset": 51360,
      "componentType": 5126,
      "count": 4280,
      "max": [
        0.999654233455658,
        0.9998683929443359,
        0.9997302889823914
      ],
      "min": [
        -0.9994110465049744,
        -0.9998623728752136,
        -0.9996116757392883
      ],
      "type": "VEC3"
    },
    {
      "bufferView": 1,
      "componentType": 5126,
      "count": 4280,
      "max": [
        1.0000001192092896,
        1.0
      ],
      "min": [
        0.0,
        0.0
      ],
      "type": "VEC2"
    },
    {
      "bufferView": 0,
      "componentType": 5125,
      "count": 25212,
      "type": "SCALAR"
    },
    {
      "bufferView": 2,
      "byteOffset": 102720,
      "componentType": 5126,
      "count": 635,
      "max": [
        1.1031662225723267,
        0.23999999463558197,
        1.1872774362564087
      ],
      "min": [
        -1.2579611539840698,
        -0.23999999463558197,
        -0.6959394812583923
      ],
      "type": "VEC3"
    },
    {
      "bufferView": 2,
      "byteOffset": 110340,
      "componentType": 5126,
      "count": 635,
      "max": [
        0.9997381567955017,
        1.0,
        0.9999679923057556
      ],
      "min": [
        -0.9999715685844421,
        -0.009437328204512596,
        -0.9999900460243225
      ],
      "type": "VEC3"
    },
    {
      "bufferView": 1,
      "byteOffset": 34240,
      "componentType": 5126,
      "count": 635,
      "max": [
        1.0,
        1.0
      ],
      "min": [
        0.0,
        0.0
      ],
      "type": "VEC2"
    },
    {
      "bufferView": 0,
      "byteOffset": 100848,
      "componentType": 5125,
      "count": 1113,
      "type": "SCALAR"
    }
  ],
  "asset": {
    "extras": {
      "author": "Juan martín (https://sketchfab.com/napoleon67y)",
      "license": "CC-BY-4.0 (http://creativecommons.org/licenses/by/4.0/)",
      "source": "https://sketchfab.com/3d-models/emoji-gino-e699680b6dd14e1eb0f08635adc836b0",
      "title": "Emoji giño"
    },
    "generator": "Sketchfab-13.83.0",
    "version": "2.0"
  },
  "bufferViews": [
    {
      "buffer": 0,
      "byteLength": 105300,
      "name": "floatBufferViews",
      "target": 34963
    },
    {
      "buffer": 0,
      "byteLength": 39320,
      "byteOffset": 105300,
      "byteStride": 8,
      "name": "floatBufferViews",
      "target": 34962
    },
    {
      "buffer": 0,
      "byteLength": 117960,
      "byteOffset": 144620,
      "byteStride": 12,
      "name": "floatBufferViews",
      "target": 34962
    }
  ],
  "buffers": [
    {
      "byteLength": 262580,
      "uri": "scene.bin"
    }
  ],
  "materials": [
    {
      "doubleSided": true,
      "name": "Material.002",
      "pbrMetallicRoughness": {
        "baseColorFactor": [
          0.882923,
          0.851098,
          0.0,
          1.0
        ],
        "metallicFactor": 0.0,
        "roughnessFactor": 0.227941
      }
    },
    {
      "doubleSided": true,
      "name": "Material.001",
      "pbrMetallicRoughness": {
        "baseColorFactor": [
          0.0,
          0.0,
          0.0,
          1.0
        ],
        "metallicFactor": 0.0,
        "roughnessFactor": 0.5
      }
    }
  ],
  "meshes": [
    {
      "name": "Object_0",
      "primitives": [
        {
          "attributes": {
            "NORMAL": 1,
            "POSITION": 0,
            "TEXCOORD_0": 2
          },
          "indices": 3,
          "material": 0,
          "mode": 4
        }
      ]
    },
    {
      "name": "Object_1",
      "primitives": [
        {
          "attributes": {
            "NORMAL": 5,
            "POSITION": 4,
            "TEXCOORD_0": 6
          },
          "indices": 7,
          "material": 1,
          "mode": 4
        }
      ]
    }
  ],
  "nodes": [
    {
      "children": [
        1
      ],
      "matrix": [
        1.0,
        0.0,
        0.0,
        0.0,
        0.0,
        2.220446049250313e-16,
        -1.0,
        0.0,
        0.0,
        1.0,
        2.220446049250313e-16,
        0.0,
        0.0,
        0.0,
        0.0,
        1.0
      ],
      "name": "Sketchfab_model"
    },
    {
      "children": [
        2
      ],
      "name": "root"
    },
    {
      "children": [
        3
      ],
      "matrix": [
        1.0,
        0.0,
        0.0,
        0.0,
        0.0,
        2.220446049250313e-16,
        1.0,
        0.0,
        0.0,
        -1.0,
        2.220446049250313e-16,
        0.0,
        0.0,
        0.0,
        0.0,
        1.0
      ],
      "name": "GLTF_SceneRootNode"
    },
    {
      "children": [
        4,
        5
      ],
      "matrix": [
        -0.9874772842775152,
        0.0,
        -0.157761253278185,
        0.0,
        0.0,
        1.0,
        0.0,
        0.0,
        0.157761253278185,
        0.0,
        -0.9874772842775152,
        0.0,
        0.0,
        0.0,
        0.0,
        1.0
      ],
      "name": "Sphere_4"
    },
    {
      "mesh": 0,
      "name": "Object_4"
    },
    {
      "children": [
        6
      ],
      "matrix": [
        0.3872025112487064,
        -4.152010918846534e-09,
        -0.08463226959058925,
        0.0,
        0.08463226959058925,
        -4.484663529410215e-10,
        0.38720251124870647,
        0.0,
        -4.152010606643924e-09,
        -0.39634376764297485,
        4.484661872104492e-10,
        0.0,
        0.2080756425857544,
        0.11783313751220703,
        0.8809902667999268,
        1.0
      ],
      "name": "cara emoji.001_3"
    },
    {
      "mesh": 1,
      "name": "Object_6"
    }
  ],
  "scene": 0,
  "scenes": [
    {
      "name": "Sketchfab_Scene",
      "nodes": [
        0
      ]
    }
  ]
}
